<svg id="visual" viewBox="0 0 1920 1080" width="1920" height="1080" xmlns="http://www.w3.org/2000/svg" xmlns:xlink="http://www.w3.org/1999/xlink" version="1.1"><path d="M0 134L45.7 170.3C91.3 206.7 182.7 279.3 274.2 309C365.7 338.7 457.3 325.3 548.8 304.3C640.3 283.3 731.7 254.7 823 264.2C914.3 273.7 1005.7 321.3 1097 311.2C1188.3 301 1279.7 233 1371.2 194C1462.7 155 1554.3 145 1645.8 148.7C1737.3 152.3 1828.7 169.7 1874.3 178.3L1920 187L1920 0L1874.3 0C1828.7 0 1737.3 0 1645.8 0C1554.3 0 1462.7 0 1371.2 0C1279.7 0 1188.3 0 1097 0C1005.7 0 914.3 0 823 0C731.7 0 640.3 0 548.8 0C457.3 0 365.7 0 274.2 0C182.7 0 91.3 0 45.7 0L0 0Z" fill="#18181b" stroke-linecap="round" stroke-linejoin="miter"></path></svg>