<svg id="visual" viewBox="0 0 1080 920" width="1080" height="920" xmlns="http://www.w3.org/2000/svg" xmlns:xlink="http://www.w3.org/1999/xlink" version="1.1"><path d="M0 352L18 332.5C36 313 72 274 108 278.2C144 282.3 180 329.7 216 328.5C252 327.3 288 277.7 324 268.2C360 258.7 396 289.3 432 297C468 304.7 504 289.3 540 287.3C576 285.3 612 296.7 648 315.5C684 334.3 720 360.7 756 370.7C792 380.7 828 374.3 864 354C900 333.7 936 299.3 972 302C1008 304.7 1044 344.3 1062 364.2L1080 384L1080 0L1062 0C1044 0 1008 0 972 0C936 0 900 0 864 0C828 0 792 0 756 0C720 0 684 0 648 0C612 0 576 0 540 0C504 0 468 0 432 0C396 0 360 0 324 0C288 0 252 0 216 0C180 0 144 0 108 0C72 0 36 0 18 0L0 0Z" fill="#18181b" stroke-linecap="round" stroke-linejoin="miter"></path></svg>