<svg xmlns="http://www.w3.org/2000/svg" viewBox="0 0 1920 1080"><svg id="visual" viewBox="0 0 960 1080" width="960" height="1080" xmlns="http://www.w3.org/2000/svg" xmlns:xlink="http://www.w3.org/1999/xlink" version="1.1" x="0"><path d="M235 0L238 0L238 135L276 135L276 270L238 270L238 405L209 405L209 540L269 540L269 675L249 675L249 810L318 810L318 945L256 945L256 1080L0 1080L0 945L0 945L0 810L0 810L0 675L0 675L0 540L0 540L0 405L0 405L0 270L0 270L0 135L0 135L0 0L0 0Z" fill="#f59e0b"></path><path d="M158 0L211 0L211 135L182 135L182 270L201 270L201 405L192 405L192 540L139 540L139 675L137 675L137 810L165 810L165 945L128 945L128 1080L0 1080L0 945L0 945L0 810L0 810L0 675L0 675L0 540L0 540L0 405L0 405L0 270L0 270L0 135L0 135L0 0L0 0Z" fill="#e78a07"></path><path d="M78 0L112 0L112 135L81 135L81 270L118 270L118 405L58 405L58 540L89 540L89 675L87 675L87 810L135 810L135 945L86 945L86 1080L0 1080L0 945L0 945L0 810L0 810L0 675L0 675L0 540L0 540L0 405L0 405L0 270L0 270L0 135L0 135L0 0L0 0Z" fill="#d97706"></path></svg><svg id="visual" viewBox="0 0 960 1080" width="960" height="1080" xmlns="http://www.w3.org/2000/svg" xmlns:xlink="http://www.w3.org/1999/xlink" version="1.1" x="960"><path d="M669 1080L694 1080L694 945L708 945L708 810L736 810L736 675L673 675L673 540L718 540L718 405L738 405L738 270L738 270L738 135L708 135L708 0L960 0L960 135L960 135L960 270L960 270L960 405L960 405L960 540L960 540L960 675L960 675L960 810L960 810L960 945L960 945L960 1080L960 1080Z" fill="#f59e0b"></path><path d="M811 1080L823 1080L823 945L775 945L775 810L766 810L766 675L768 675L768 540L760 540L760 405L766 405L766 270L771 270L771 135L776 135L776 0L960 0L960 135L960 135L960 270L960 270L960 405L960 405L960 540L960 540L960 675L960 675L960 810L960 810L960 945L960 945L960 1080L960 1080Z" fill="#e78a07"></path><path d="M888 1080L855 1080L855 945L873 945L873 810L892 810L892 675L854 675L854 540L858 540L858 405L867 405L867 270L886 270L886 135L850 135L850 0L960 0L960 135L960 135L960 270L960 270L960 405L960 405L960 540L960 540L960 675L960 675L960 810L960 810L960 945L960 945L960 1080L960 1080Z" fill="#d97706"></path></svg></svg>